<svg width="101" height="41" fill="none" xmlns="http://www.w3.org/2000/svg"><g clip-path="url(#clip0_204_81)" fill="#D2D2D2"><path d="M20.208 19.75c2.713 0 5.063-.973 6.982-2.893 1.92-1.92 2.893-4.269 2.893-6.982s-.973-5.062-2.893-6.982S22.92 0 20.208 0c-2.714 0-5.063.973-6.982 2.893-1.92 1.92-2.893 4.269-2.893 6.982s.973 5.062 2.893 6.982 4.27 2.893 6.982 2.893zm17.279 11.777a24.41 24.41 0 00-.332-2.59 20.409 20.409 0 00-.638-2.606 12.865 12.865 0 00-1.07-2.429 9.169 9.169 0 00-1.615-2.104c-.637-.61-1.417-1.1-2.32-1.457-.898-.356-1.895-.536-2.96-.536-.419 0-.824.172-1.605.68-.482.314-1.044.677-1.672 1.079-.537.342-1.265.662-2.164.953a8.59 8.59 0 01-2.645.427 8.599 8.599 0 01-2.647-.427c-.897-.29-1.625-.611-2.161-.953-.623-.398-1.186-.76-1.674-1.079-.78-.509-1.186-.68-1.604-.68-1.067 0-2.062.18-2.961.536-.902.357-1.682.847-2.32 1.457a9.166 9.166 0 00-1.614 2.104 12.883 12.883 0 00-1.07 2.43c-.257.8-.471 1.677-.638 2.604-.164.92-.276 1.791-.332 2.592a35.14 35.14 0 00-.082 2.42c0 2.141.68 3.874 2.022 5.152 1.325 1.26 3.079 1.9 5.21 1.9h19.742c2.132 0 3.885-.64 5.21-1.9 1.342-1.277 2.023-3.01 2.023-5.151 0-.826-.028-1.641-.083-2.422z"/></g><g clip-path="url(#clip1_204_81)" fill="#B9B9B9"><path d="M40.208 19.75c2.713 0 5.063-.973 6.982-2.893 1.92-1.92 2.893-4.269 2.893-6.982s-.973-5.062-2.893-6.982S42.92 0 40.208 0c-2.714 0-5.063.973-6.982 2.893-1.92 1.92-2.893 4.269-2.893 6.982s.973 5.062 2.893 6.982 4.27 2.893 6.982 2.893zm17.279 11.777a24.41 24.41 0 00-.332-2.59 20.409 20.409 0 00-.638-2.606 12.865 12.865 0 00-1.07-2.429 9.169 9.169 0 00-1.615-2.104c-.637-.61-1.417-1.1-2.32-1.457-.898-.356-1.895-.536-2.96-.536-.419 0-.824.172-1.605.68-.482.314-1.044.677-1.672 1.079-.537.342-1.265.662-2.164.953a8.59 8.59 0 01-2.645.427 8.599 8.599 0 01-2.647-.427c-.898-.29-1.625-.611-2.162-.953-.622-.398-1.185-.76-1.673-1.079-.78-.509-1.186-.68-1.604-.68-1.067 0-2.062.18-2.961.536-.902.357-1.682.847-2.32 1.457a9.167 9.167 0 00-1.614 2.104 12.883 12.883 0 00-1.07 2.43c-.257.8-.471 1.677-.638 2.604-.164.92-.276 1.791-.332 2.592a35.159 35.159 0 00-.082 2.42c0 2.141.68 3.874 2.022 5.152 1.325 1.26 3.079 1.9 5.21 1.9h19.742c2.132 0 3.885-.64 5.21-1.9 1.342-1.277 2.023-3.01 2.023-5.151 0-.826-.028-1.641-.083-2.422z"/></g><g clip-path="url(#clip2_204_81)" fill="#A6A6A6"><path d="M60.208 19.75c2.713 0 5.063-.973 6.982-2.893 1.92-1.92 2.893-4.269 2.893-6.982s-.973-5.062-2.893-6.982S62.92 0 60.208 0c-2.714 0-5.063.973-6.982 2.893-1.92 1.92-2.893 4.269-2.893 6.982s.973 5.062 2.893 6.982 4.27 2.893 6.982 2.893zm17.279 11.777a24.41 24.41 0 00-.332-2.59 20.409 20.409 0 00-.638-2.606 12.865 12.865 0 00-1.07-2.429 9.169 9.169 0 00-1.615-2.104c-.637-.61-1.417-1.1-2.32-1.457-.898-.356-1.895-.536-2.96-.536-.419 0-.824.172-1.605.68-.481.314-1.044.677-1.672 1.079-.537.342-1.265.662-2.164.953a8.59 8.59 0 01-2.645.427 8.599 8.599 0 01-2.647-.427c-.898-.29-1.625-.611-2.162-.953-.622-.398-1.185-.76-1.673-1.079-.78-.509-1.186-.68-1.604-.68-1.067 0-2.062.18-2.961.536-.902.357-1.682.847-2.32 1.457a9.167 9.167 0 00-1.614 2.104 12.883 12.883 0 00-1.07 2.43c-.257.8-.471 1.677-.638 2.604-.164.92-.276 1.791-.332 2.592a35.159 35.159 0 00-.082 2.42c0 2.141.68 3.874 2.022 5.152 1.325 1.26 3.079 1.9 5.21 1.9h19.742c2.132 0 3.885-.64 5.21-1.9 1.342-1.277 2.023-3.01 2.023-5.151 0-.826-.028-1.641-.083-2.422z"/></g><g clip-path="url(#clip3_204_81)" fill="#8D8D8D"><path d="M80.208 19.75c2.713 0 5.063-.973 6.982-2.893 1.92-1.92 2.893-4.269 2.893-6.982s-.973-5.062-2.893-6.982S82.92 0 80.208 0c-2.714 0-5.063.973-6.982 2.893-1.92 1.92-2.893 4.269-2.893 6.982s.973 5.062 2.893 6.982 4.27 2.893 6.982 2.893zm17.279 11.777a24.41 24.41 0 00-.332-2.59 20.409 20.409 0 00-.638-2.606 12.865 12.865 0 00-1.07-2.429 9.169 9.169 0 00-1.615-2.104c-.637-.61-1.417-1.1-2.32-1.457-.898-.356-1.895-.536-2.96-.536-.419 0-.824.172-1.605.68-.481.314-1.044.677-1.672 1.079-.537.342-1.265.662-2.164.953a8.59 8.59 0 01-2.645.427 8.599 8.599 0 01-2.647-.427c-.898-.29-1.625-.611-2.162-.953-.622-.398-1.185-.76-1.673-1.079-.78-.509-1.186-.68-1.604-.68-1.066 0-2.062.18-2.961.536-.902.357-1.682.847-2.32 1.457a9.167 9.167 0 00-1.614 2.104 12.883 12.883 0 00-1.07 2.43c-.257.8-.471 1.677-.638 2.604-.164.92-.276 1.791-.332 2.592a35.159 35.159 0 00-.082 2.42c0 2.141.68 3.874 2.022 5.152 1.325 1.26 3.079 1.9 5.21 1.9h19.742c2.132 0 3.885-.64 5.21-1.9 1.342-1.277 2.023-3.01 2.023-5.151 0-.826-.028-1.641-.083-2.422z"/></g><defs><clipPath id="clip0_204_81"><path fill="#fff" d="M0 0h41v41H0z"/></clipPath><clipPath id="clip1_204_81"><path fill="#fff" transform="translate(20)" d="M0 0h41v41H0z"/></clipPath><clipPath id="clip2_204_81"><path fill="#fff" transform="translate(40)" d="M0 0h41v41H0z"/></clipPath><clipPath id="clip3_204_81"><path fill="#fff" transform="translate(60)" d="M0 0h41v41H0z"/></clipPath></defs></svg>